<?xml version="1.0" encoding="UTF-8" standalone="no"?>
<!-- Created with Inkscape (http://www.inkscape.org/) -->

<svg
   width="17.301111mm"
   height="19.304924mm"
   viewBox="0 0 17.301111 19.304924"
   version="1.1"
   id="svg1"
   xml:space="preserve"
   inkscape:version="1.2.2 (b0a8486541, 2022-12-01)"
   sodipodi:docname="favicon.svg"
   xmlns:inkscape="http://www.inkscape.org/namespaces/inkscape"
   xmlns:sodipodi="http://sodipodi.sourceforge.net/DTD/sodipodi-0.dtd"
   xmlns="http://www.w3.org/2000/svg"
   xmlns:svg="http://www.w3.org/2000/svg"><sodipodi:namedview
     id="namedview1"
     pagecolor="#ffffff"
     bordercolor="#000000"
     borderopacity="0.25"
     inkscape:showpageshadow="2"
     inkscape:pageopacity="0.0"
     inkscape:pagecheckerboard="0"
     inkscape:deskcolor="#d1d1d1"
     inkscape:document-units="mm"
     inkscape:zoom="1"
     inkscape:cx="250.5"
     inkscape:cy="-16"
     inkscape:window-width="1920"
     inkscape:window-height="1008"
     inkscape:window-x="0"
     inkscape:window-y="0"
     inkscape:window-maximized="1"
     inkscape:current-layer="layer1"
     showgrid="false" /><defs
     id="defs1" /><g
     inkscape:label="Layer 1"
     inkscape:groupmode="layer"
     id="layer1"
     transform="translate(-62.335577,-138.84753)"><g
       id="g18"
       transform="matrix(0.1912342,0,0,0.1912342,208.1409,124.23695)"><path
         id="path17"
         style="fill:#000000"
         d="m -717.19033,95.238114 c -2.83036,0.0328 -5.66343,1.460109 -7.03265,4.264856 -0.92078,1.88617 -1.09659,3.47443 -0.58032,5.25033 0.54986,1.89147 1.75159,3.51514 3.32589,4.49378 l 1.26969,0.7891 0.14366,7.19284 c 0.20243,10.13435 0.20233,10.13499 5.71386,13.52527 1.98458,1.22077 3.13127,2.10595 3.42719,2.64584 0.40344,0.73605 0.45228,2.67066 0.52348,20.8535 0.0614,15.66666 0.14963,20.04219 0.40462,20.04219 0.17942,0 1.45373,-0.68588 2.83187,-1.52394 l 2.50579,-1.52393 v -19.07429 -19.07481 l -0.92914,-1.82469 c -0.87361,-1.71605 -1.16226,-2.00468 -4.82864,-4.824 l -3.89951,-2.99878 v -6.57428 -6.57479 l 0.8599,-0.58911 c 1.5412,-1.05597 2.61384,-2.19989 3.32589,-3.54759 1.01519,-1.92149 0.99603,-4.6935 -0.047,-6.82542 -1.35678,-2.773158 -4.18421,-4.134874 -7.01456,-4.102076 z m 0.0109,5.239986 c 0.24349,-5.4e-4 0.80904,0.30694 1.25677,0.68368 1.05202,0.88522 1.12106,2.20744 0.16485,3.16364 -0.96533,0.96533 -2.27763,0.8881 -3.18275,-0.18759 -0.4679,-0.55607 -0.65496,-1.02253 -0.55656,-1.38906 0.0815,-0.30352 0.14993,-0.70273 0.15193,-0.88677 0.004,-0.40086 1.54059,-1.3829 2.16576,-1.3839 z" /><path
         id="path14"
         style="fill:#000000"
         d="m -717.49626,76.401538 c -0.39237,-0.0013 -0.69794,0.0999 -1.0666,0.22841 -0.4676,0.163007 -4.07849,2.186958 -8.02431,4.4974 -3.94582,2.310442 -13.12736,7.680038 -20.40341,11.932605 -7.27604,4.252566 -13.55452,8.038217 -13.95212,8.412927 -1.59998,1.50788 -1.55074,0.6468 -1.46864,25.72711 l 0.0749,22.88646 0.59273,1.10897 c 0.77504,1.44996 1.07761,1.66021 9.46143,6.57118 3.92906,2.30152 12.85524,7.57092 19.836,11.70988 6.98075,4.13896 12.93388,7.62335 13.22917,7.74319 0.29528,0.11986 0.69555,0.16602 0.88935,0.10232 0.1938,-0.0636 0.46169,-0.11575 0.59531,-0.11575 0.36878,0 0.31803,-38.35984 -0.0527,-39.8322 -0.35693,-1.41749 -1.11957,-2.12996 -5.28133,-4.9351 -7.00017,-4.71831 -9.63334,-6.6191 -9.57564,-6.91224 0.0337,-0.17115 0.2399,-1.085 0.45785,-2.03088 0.72236,-3.13502 -0.33175,-6.06664 -2.77037,-7.70444 -1.44813,-0.97257 -2.62378,-1.28916 -4.75992,-1.28416 -5.75103,0.0145 -9.22528,5.95562 -6.60425,11.29389 1.48228,3.01899 4.14954,4.47811 7.70444,4.21473 l 2.02624,-0.14987 1.67793,1.24644 c 0.92286,0.68566 3.58294,2.60545 5.91127,4.26589 2.32834,1.66043 4.56075,3.31995 4.96093,3.68763 l 0.72761,0.66818 v 13.86943 c 0,11.76238 -0.0562,13.84809 -0.36949,13.72785 -0.33556,-0.12876 -20.40641,-11.87289 -28.06599,-16.42226 -2.53478,-1.50553 -3.28809,-2.09245 -3.76979,-2.93935 l -0.60151,-1.05833 0.0651,-20.0179 0.0656,-20.0179 0.81442,-1.00614 c 0.60668,-0.74947 3.57697,-2.63246 11.64166,-7.380948 5.95494,-3.506271 14.10147,-8.313151 18.10329,-10.681519 6.95553,-4.116437 7.3285,-4.301231 8.46667,-4.197159 0.94771,0.08666 2.43219,0.839165 7.27604,3.688147 3.34698,1.968574 11.32416,6.647167 17.72708,10.396781 6.40291,3.749618 12.02028,7.175098 12.48348,7.612458 0.4632,0.43737 0.97167,1.1074 1.12965,1.4888 0.20015,0.48318 0.2655,6.75253 0.216,20.6747 -0.0701,19.69734 -0.0789,19.99177 -0.61598,20.72897 -0.50278,0.6901 -11.29496,7.48148 -12.35325,7.77369 -0.43662,0.12056 -0.46302,-0.65052 -0.46302,-13.52941 0,-9.30224 0.088,-13.65653 0.27595,-13.65653 0.61599,0 2.87128,-2.46924 3.41943,-3.74344 2.68986,-6.25276 -3.76285,-12.72797 -9.98699,-10.02161 -5.80554,2.52434 -5.9994,10.96163 -0.31936,13.89889 l 0.79013,0.40876 v 18.49861 c 0,12.74764 0.0873,18.55225 0.28061,18.67173 0.23673,0.1463 19.14025,-10.91996 22.33352,-13.07414 0.57802,-0.38993 1.41145,-1.2221 1.85208,-1.84898 l 0.8015,-1.13946 0.0703,-23.42855 0.0703,-23.42854 -0.65009,-1.11001 c -0.35764,-0.61027 -1.10358,-1.40818 -1.65778,-1.77354 -0.55419,-0.36535 -10.02216,-5.923913 -21.03954,-12.352215 -17.14638,-10.004387 -20.4756,-11.937748 -22.17591,-11.943457 z m 22.6286,42.860952 c 2.40348,0 3.68232,2.96791 2.05052,4.75888 -1.30045,1.42731 -3.55182,1.17618 -4.41472,-0.49248 -1.04279,-2.01654 0.204,-4.2664 2.3642,-4.2664 z m -44.5823,0.26458 c 1.20706,0 2.38125,1.23941 2.38125,2.51354 0,0.71573 -0.201,1.16737 -0.77359,1.73995 -0.52784,0.52784 -1.03815,0.77359 -1.60766,0.77359 -1.20707,0 -2.38125,-1.23942 -2.38125,-2.51354 0,-1.27413 1.17418,-2.51354 2.38125,-2.51354 z" /></g></g></svg>
