<?xml version="1.0" encoding="UTF-8" standalone="no"?>
<!-- Created with Inkscape (http://www.inkscape.org/) -->

<svg
   width="11.627327mm"
   height="12.973848mm"
   viewBox="0 0 11.627327 12.973848"
   version="1.1"
   id="svg1"
   xml:space="preserve"
   inkscape:version="1.2.2 (b0a8486541, 2022-12-01)"
   sodipodi:docname="logo.svg"
   xmlns:inkscape="http://www.inkscape.org/namespaces/inkscape"
   xmlns:sodipodi="http://sodipodi.sourceforge.net/DTD/sodipodi-0.dtd"
   xmlns:xlink="http://www.w3.org/1999/xlink"
   xmlns="http://www.w3.org/2000/svg"
   xmlns:svg="http://www.w3.org/2000/svg"><sodipodi:namedview
     id="namedview1"
     pagecolor="#ffffff"
     bordercolor="#000000"
     borderopacity="0.25"
     inkscape:showpageshadow="2"
     inkscape:pageopacity="0.0"
     inkscape:pagecheckerboard="0"
     inkscape:deskcolor="#d1d1d1"
     inkscape:document-units="mm"
     inkscape:zoom="1"
     inkscape:cx="76"
     inkscape:cy="25"
     inkscape:window-width="1920"
     inkscape:window-height="1008"
     inkscape:window-x="0"
     inkscape:window-y="0"
     inkscape:window-maximized="1"
     inkscape:current-layer="layer1"
     showgrid="false" /><defs
     id="defs1"><linearGradient
       inkscape:collect="always"
       id="linearGradient6703"><stop
         style="stop-color:#0093a7;stop-opacity:1;"
         offset="0"
         id="stop6699" /><stop
         style="stop-color:#28478a;stop-opacity:1;"
         offset="1"
         id="stop6701" /></linearGradient><linearGradient
       inkscape:collect="always"
       xlink:href="#linearGradient6703"
       id="linearGradient9675"
       gradientUnits="userSpaceOnUse"
       x1="-762.44379"
       y1="126.87608"
       x2="-685.53796"
       y2="171.27769"
       gradientTransform="matrix(0.12852058,0,0,0.12852058,163.16211,131.55513)" /></defs><g
     inkscape:label="Layer 1"
     inkscape:groupmode="layer"
     id="layer1"
     transform="translate(-65.17251,-141.37449)"><path
       id="path17"
       style="fill:url(#linearGradient9675);fill-opacity:1;stroke:none;stroke-width:0.128521"
       d="m 70.94895,141.37456 c -0.05043,-1.7e-4 -0.08956,0.0123 -0.136943,0.0289 -0.0601,0.0209 -0.524342,0.28132 -1.031461,0.57826 -0.507119,0.29694 -1.686941,0.98721 -2.622063,1.53375 -0.935119,0.54654 -1.742072,1.03292 -1.793172,1.08107 -0.205631,0.1938 -0.19917,0.0829 -0.188619,3.30626 l 0.0093,2.94142 0.07648,0.14263 c 0.09961,0.18635 0.138455,0.21323 1.215947,0.84439 0.504964,0.2958 1.652028,0.97339 2.549198,1.50534 0.897169,0.53194 1.662204,0.97937 1.700155,0.99477 0.03795,0.0154 0.0893,0.0215 0.114205,0.0134 0.02491,-0.008 0.05931,-0.015 0.07648,-0.015 0.0474,0 0.04095,-4.92984 -0.0067,-5.11907 -0.04587,-0.18218 -0.143641,-0.27406 -0.678512,-0.63458 -0.899665,-0.6064 -1.238348,-0.85064 -1.230932,-0.88832 0.0043,-0.022 0.0309,-0.1394 0.05891,-0.26097 0.09284,-0.40291 -0.04264,-0.77963 -0.356051,-0.99012 -0.186114,-0.125 -0.337311,-0.16549 -0.611849,-0.16485 -0.739125,0.002 -1.185384,0.765 -0.848527,1.45108 0.190503,0.388 0.533243,0.57593 0.990121,0.54208 l 0.260449,-0.0196 0.21549,0.16019 c 0.118606,0.0881 0.460405,0.33489 0.759644,0.54829 0.299239,0.2134 0.586256,0.42662 0.637687,0.47387 l 0.09353,0.0863 v 1.78232 c 0,1.5117 -0.0073,1.77969 -0.04754,1.76424 -0.04313,-0.0165 -2.622603,-1.52578 -3.607015,-2.11047 -0.325771,-0.19349 -0.422299,-0.2689 -0.484208,-0.37775 l -0.07752,-0.13591 0.0083,-2.57297 0.0088,-2.57245 0.104386,-0.12971 c 0.07797,-0.0963 0.459555,-0.33799 1.496033,-0.94827 0.765331,-0.45062 1.812674,-1.06865 2.326989,-1.37304 0.893929,-0.52904 0.941511,-0.55287 1.087789,-0.5395 0.1218,0.0111 0.312809,0.10824 0.935344,0.47439 0.430154,0.25301 1.455508,0.85394 2.278414,1.33584 0.822905,0.4819 1.544506,0.92254 1.604036,0.97875 0.05953,0.0562 0.124907,0.14219 0.145211,0.1912 0.02572,0.0621 0.03427,0.86791 0.02791,2.6572 -0.009,2.53151 -0.01004,2.56917 -0.07906,2.66392 -0.06462,0.0887 -1.451488,0.96135 -1.5875,0.99891 -0.05612,0.0155 -0.05994,-0.0832 -0.05994,-1.7384 0,-1.19553 0.0115,-1.75545 0.03566,-1.75545 0.07917,0 0.368801,-0.31734 0.43925,-0.4811 0.345702,-0.8036 -0.483197,-1.6356 -1.283126,-1.28778 -0.74613,0.32443 -0.771346,1.40845 -0.04134,1.78594 l 0.101803,0.0527 v 2.37763 c 0,1.63833 0.01133,2.38399 0.03617,2.39934 0.03042,0.0188 2.459709,-1.40315 2.870109,-1.68 0.07429,-0.0501 0.181599,-0.15715 0.238229,-0.23772 l 0.102836,-0.14624 0.0088,-3.01119 0.0093,-3.01118 -0.08371,-0.14263 c -0.04596,-0.0784 -0.141681,-0.18093 -0.212907,-0.22789 -0.07122,-0.0469 -1.288269,-0.76133 -2.704228,-1.5875 -2.203661,-1.28577 -2.63143,-1.53406 -2.849955,-1.53479 z m 0.03927,2.42052 c -0.36376,0.004 -0.727848,0.18782 -0.903821,0.54829 -0.11834,0.24241 -0.140769,0.44666 -0.07441,0.67489 0.07067,0.2431 0.225034,0.45145 0.427364,0.57723 l 0.163298,0.1018 0.0186,0.92398 c 0.02602,1.30247 0.02597,1.30267 0.734322,1.73839 0.255059,0.15689 0.402252,0.27065 0.440283,0.34003 0.05185,0.0946 0.05803,0.34359 0.06718,2.68046 0.0079,2.01348 0.01942,2.57555 0.05219,2.57555 0.02306,0 0.186683,-0.0882 0.363802,-0.19585 l 0.321944,-0.19585 v -2.45153 -2.45153 L 72.4796,148.42632 c -0.112277,-0.22055 -0.149429,-0.25726 -0.620634,-0.6196 l -0.500745,-0.3855 v -0.84491 -0.84491 l 0.110071,-0.076 c 0.198076,-0.13571 0.336368,-0.28258 0.427881,-0.45578 0.130473,-0.24696 0.127809,-0.60348 -0.0062,-0.87747 -0.174374,-0.35641 -0.537996,-0.53132 -0.901754,-0.5271 z m 0.0015,0.67335 c 0.03129,-7e-5 0.104204,0.0393 0.161747,0.0878 0.135206,0.11377 0.144077,0.2838 0.02119,0.40669 -0.124065,0.12407 -0.292951,0.11447 -0.409278,-0.0238 -0.06014,-0.0715 -0.08396,-0.13169 -0.07131,-0.1788 0.01047,-0.039 0.01886,-0.09 0.01912,-0.11369 5.14e-4,-0.0515 0.198188,-0.17815 0.278536,-0.17828 z m 2.867525,2.41432 c 0.308897,0 0.47327,0.38167 0.26355,0.61185 -0.167134,0.18344 -0.456507,0.1509 -0.567407,-0.0636 -0.13402,-0.25916 0.02623,-0.54829 0.303857,-0.54829 z m -5.729882,0.0341 c 0.155131,0 0.306441,0.15922 0.306441,0.32297 0,0.092 -0.02615,0.15017 -0.09974,0.22376 -0.06784,0.0678 -0.133512,0.0992 -0.206705,0.0992 -0.155133,0 -0.305925,-0.15923 -0.305925,-0.32298 0,-0.16375 0.150792,-0.32297 0.305925,-0.32297 z" /></g></svg>
