<?xml version="1.0" encoding="UTF-8" standalone="no"?>
<!-- Created with Inkscape (http://www.inkscape.org/) -->

<svg
   width="50"
   height="50"
   viewBox="0 0 13.229167 13.229166"
   version="1.1"
   id="svg1"
   xml:space="preserve"
   inkscape:version="1.2.2 (b0a8486541, 2022-12-01)"
   sodipodi:docname="favicon.svg"
   xmlns:inkscape="http://www.inkscape.org/namespaces/inkscape"
   xmlns:sodipodi="http://sodipodi.sourceforge.net/DTD/sodipodi-0.dtd"
   xmlns:xlink="http://www.w3.org/1999/xlink"
   xmlns="http://www.w3.org/2000/svg"
   xmlns:svg="http://www.w3.org/2000/svg"><sodipodi:namedview
     id="namedview1"
     pagecolor="#ffffff"
     bordercolor="#000000"
     borderopacity="0.25"
     inkscape:showpageshadow="2"
     inkscape:pageopacity="0.0"
     inkscape:pagecheckerboard="0"
     inkscape:deskcolor="#d1d1d1"
     inkscape:document-units="mm"
     inkscape:zoom="1"
     inkscape:cx="-75"
     inkscape:cy="-10"
     inkscape:window-width="1920"
     inkscape:window-height="1008"
     inkscape:window-x="0"
     inkscape:window-y="0"
     inkscape:window-maximized="1"
     inkscape:current-layer="layer1"
     showgrid="false" /><defs
     id="defs1"><linearGradient
       inkscape:collect="always"
       id="linearGradient6703"><stop
         style="stop-color:#0093a7;stop-opacity:1;"
         offset="0"
         id="stop6699" /><stop
         style="stop-color:#28478a;stop-opacity:1;"
         offset="1"
         id="stop6701" /></linearGradient><linearGradient
       inkscape:collect="always"
       xlink:href="#linearGradient6703"
       id="linearGradient9675"
       gradientUnits="userSpaceOnUse"
       x1="-762.44379"
       y1="126.87608"
       x2="-685.53796"
       y2="171.27769"
       gradientTransform="matrix(0.1310498,0,0,0.1310498,165.77694,131.36188)" /></defs><g
     inkscape:label="Layer 1"
     inkscape:groupmode="layer"
     id="layer1"
     transform="translate(-65.17251,-141.37449)"
     sodipodi:insensitive="true"><path
       id="path17"
       style="fill:url(#linearGradient9675);fill-opacity:1;stroke:none;stroke-width:0.13105"
       d="m 71.749071,141.37454 c -0.05142,-1.7e-4 -0.09132,0.0125 -0.139638,0.0295 -0.06128,0.0213 -0.534661,0.28686 -1.051759,0.58964 -0.517099,0.30278 -1.720139,1.00664 -2.673664,1.56393 -0.953522,0.5573 -1.776355,1.05325 -1.828461,1.10235 -0.209677,0.19761 -0.203089,0.0845 -0.192331,3.37132 l 0.0095,2.99931 0.07798,0.14544 c 0.101571,0.19001 0.14118,0.21742 1.239877,0.861 0.514901,0.30162 1.684539,0.99255 2.599364,1.53497 0.914825,0.54241 1.694916,0.99864 1.733614,1.01434 0.0387,0.0157 0.09106,0.0219 0.116452,0.0137 0.0254,-0.008 0.06048,-0.0153 0.07798,-0.0153 0.04833,0 0.04176,-5.02685 -0.0068,-5.21981 -0.04677,-0.18576 -0.146467,-0.27945 -0.691864,-0.64707 -0.91737,-0.61833 -1.262718,-0.86738 -1.255157,-0.9058 0.0044,-0.0224 0.03151,-0.14214 0.06007,-0.2661 0.09467,-0.41084 -0.04348,-0.79498 -0.363058,-1.00961 -0.189777,-0.12746 -0.343949,-0.16875 -0.62389,-0.16809 -0.753671,0.002 -1.208712,0.78005 -0.865226,1.47963 0.194252,0.39564 0.543737,0.58727 1.009607,0.55275 l 0.265574,-0.02 0.219731,0.16334 c 0.12094,0.0898 0.469465,0.34148 0.774593,0.55908 0.305128,0.2176 0.597793,0.43501 0.650236,0.48319 l 0.09537,0.088 v 1.8174 c 0,1.54145 -0.0074,1.81471 -0.04848,1.79896 -0.04398,-0.0168 -2.674215,-1.55581 -3.678,-2.15201 -0.332182,-0.19729 -0.430609,-0.27419 -0.493737,-0.38518 l -0.07905,-0.13858 0.0085,-2.62361 0.009,-2.62307 0.106441,-0.13227 c 0.0795,-0.0982 0.468598,-0.34464 1.525474,-0.96693 0.780392,-0.45949 1.848346,-1.08968 2.372783,-1.40006 0.911521,-0.53945 0.960039,-0.56375 1.109196,-0.55012 0.124197,0.0113 0.318965,0.11037 0.953751,0.48373 0.438619,0.25799 1.484151,0.87074 2.323252,1.36213 0.839099,0.49138 1.574901,0.94069 1.635602,0.99801 0.0607,0.0573 0.127365,0.14499 0.148069,0.19496 0.02623,0.0633 0.03494,0.88499 0.02846,2.70949 -0.0092,2.58133 -0.01024,2.61973 -0.08062,2.71635 -0.06589,0.0904 -1.480052,0.98027 -1.618741,1.01857 -0.05722,0.0158 -0.06112,-0.0848 -0.06112,-1.77261 0,-1.21906 0.01173,-1.79 0.03636,-1.79 0.08073,0 0.376059,-0.32358 0.447895,-0.49057 0.352505,-0.81941 -0.492706,-1.66779 -1.308378,-1.31312 -0.760813,0.33081 -0.786525,1.43617 -0.04215,1.82109 l 0.103806,0.0537 v 2.42442 c 0,1.67057 0.01155,2.43091 0.03688,2.44656 0.03102,0.0192 2.508115,-1.43076 2.926591,-1.71306 0.07575,-0.0511 0.185173,-0.16024 0.242918,-0.2424 l 0.104859,-0.14912 0.009,-3.07044 0.0095,-3.07044 -0.08536,-0.14544 c -0.04686,-0.0799 -0.144469,-0.18449 -0.217097,-0.23238 -0.07262,-0.0478 -1.313621,-0.77631 -2.757445,-1.61874 -2.247028,-1.31107 -2.683216,-1.56425 -2.906041,-1.56499 z m 0.04004,2.46816 c -0.370919,0.004 -0.742172,0.19151 -0.921608,0.55908 -0.120669,0.24718 -0.143539,0.45545 -0.07587,0.68817 0.07206,0.24788 0.229463,0.46033 0.435774,0.58859 l 0.166512,0.1038 0.01897,0.94216 c 0.02653,1.32811 0.02648,1.32831 0.748773,1.7726 0.260078,0.15998 0.410168,0.27598 0.448948,0.34673 0.05287,0.0965 0.05917,0.35035 0.0685,2.73321 0.0081,2.0531 0.0198,2.62623 0.05322,2.62623 0.02351,0 0.190356,-0.0899 0.370961,-0.1997 l 0.32828,-0.19971 v -2.49977 -2.49978 l -0.121727,-0.23923 c -0.114487,-0.22489 -0.15237,-0.26233 -0.632848,-0.6318 l -0.5106,-0.39308 v -0.86154 -0.86154 l 0.112238,-0.0775 c 0.201974,-0.13838 0.342987,-0.28815 0.436301,-0.46475 0.133041,-0.25182 0.130324,-0.61536 -0.0063,-0.89474 -0.177806,-0.36343 -0.548583,-0.54178 -0.9195,-0.53747 z m 0.0015,0.6866 c 0.0319,-7e-5 0.106254,0.0401 0.16493,0.0895 0.137866,0.11601 0.146912,0.28939 0.02161,0.4147 -0.126507,0.12651 -0.298716,0.11672 -0.417333,-0.0243 -0.06132,-0.0729 -0.08561,-0.13428 -0.07271,-0.18232 0.01068,-0.0398 0.01923,-0.0918 0.0195,-0.11593 5.24e-4,-0.0525 0.202088,-0.18165 0.284018,-0.18178 z m 2.923956,2.46183 c 0.314976,0 0.482584,0.38918 0.268736,0.62389 -0.170423,0.18705 -0.46549,0.15387 -0.578573,-0.0649 -0.136657,-0.26426 0.02675,-0.55908 0.309837,-0.55908 z m -5.842643,0.0348 c 0.158184,0 0.312471,0.16235 0.312471,0.32933 0,0.0938 -0.02666,0.15312 -0.101702,0.22816 -0.06918,0.0691 -0.13614,0.10115 -0.210773,0.10115 -0.158186,0 -0.311946,-0.16236 -0.311946,-0.32933 0,-0.16698 0.15376,-0.32933 0.311946,-0.32933 z" /></g></svg>
