<?xml version="1.0" encoding="UTF-8" standalone="no"?>
<!-- Created with Inkscape (http://www.inkscape.org/) -->

<svg
   width="74.437935mm"
   height="34.737247mm"
   viewBox="0 0 74.437935 34.737247"
   version="1.1"
   id="svg1"
   xml:space="preserve"
   inkscape:version="1.4.2 (f4327f4, 2025-05-13)"
   sodipodi:docname="logo-inverse.svg"
   xmlns:inkscape="http://www.inkscape.org/namespaces/inkscape"
   xmlns:sodipodi="http://sodipodi.sourceforge.net/DTD/sodipodi-0.dtd"
   xmlns="http://www.w3.org/2000/svg"
   xmlns:svg="http://www.w3.org/2000/svg"><sodipodi:namedview
     id="namedview1"
     pagecolor="#ffffff"
     bordercolor="#000000"
     borderopacity="0.25"
     inkscape:showpageshadow="2"
     inkscape:pageopacity="0.0"
     inkscape:pagecheckerboard="0"
     inkscape:deskcolor="#d1d1d1"
     inkscape:document-units="mm"
     inkscape:zoom="1"
     inkscape:cx="143"
     inkscape:cy="138.5"
     inkscape:window-width="1920"
     inkscape:window-height="991"
     inkscape:window-x="-9"
     inkscape:window-y="-9"
     inkscape:window-maximized="1"
     inkscape:current-layer="layer1" /><defs
     id="defs1" /><g
     inkscape:label="Layer 1"
     inkscape:groupmode="layer"
     id="layer1"
     transform="translate(-67.781033,-73.518802)"><g
       id="g1"
       style="fill:#ffffff"><g
         id="g18"
         transform="matrix(0.1912342,0,0,0.1912342,242.15477,58.908217)"
         style="fill:#ffffff"><path
           id="path17"
           style="fill:#ffffff"
           d="m -717.19033,95.238114 c -2.83036,0.0328 -5.66343,1.460109 -7.03265,4.264856 -0.92078,1.88617 -1.09659,3.47443 -0.58032,5.25033 0.54986,1.89147 1.75159,3.51514 3.32589,4.49378 l 1.26969,0.7891 0.14366,7.19284 c 0.20243,10.13435 0.20233,10.13499 5.71386,13.52527 1.98458,1.22077 3.13127,2.10595 3.42719,2.64584 0.40344,0.73605 0.45228,2.67066 0.52348,20.8535 0.0614,15.66666 0.14963,20.04219 0.40462,20.04219 0.17942,0 1.45373,-0.68588 2.83187,-1.52394 l 2.50579,-1.52393 v -19.07429 -19.07481 l -0.92914,-1.82469 c -0.87361,-1.71605 -1.16226,-2.00468 -4.82864,-4.824 l -3.89951,-2.99878 v -6.57428 -6.57479 l 0.8599,-0.58911 c 1.5412,-1.05597 2.61384,-2.19989 3.32589,-3.54759 1.01519,-1.92149 0.99603,-4.6935 -0.047,-6.82542 -1.35678,-2.773158 -4.18421,-4.134874 -7.01456,-4.102076 z m 0.0109,5.239986 c 0.24349,-5.4e-4 0.80904,0.30694 1.25677,0.68368 1.05202,0.88522 1.12106,2.20744 0.16485,3.16364 -0.96533,0.96533 -2.27763,0.8881 -3.18275,-0.18759 -0.4679,-0.55607 -0.65496,-1.02253 -0.55656,-1.38906 0.0815,-0.30352 0.14993,-0.70273 0.15193,-0.88677 0.004,-0.40086 1.54059,-1.3829 2.16576,-1.3839 z" /><path
           id="path14"
           style="fill:#ffffff"
           d="m -717.49626,76.401538 c -0.39237,-0.0013 -0.69794,0.0999 -1.0666,0.22841 -0.4676,0.163007 -4.07849,2.186958 -8.02431,4.4974 -3.94582,2.310442 -13.12736,7.680038 -20.40341,11.932605 -7.27604,4.252566 -13.55452,8.038217 -13.95212,8.412927 -1.59998,1.50788 -1.55074,0.6468 -1.46864,25.72711 l 0.0749,22.88646 0.59273,1.10897 c 0.77504,1.44996 1.07761,1.66021 9.46143,6.57118 3.92906,2.30152 12.85524,7.57092 19.836,11.70988 6.98075,4.13896 12.93388,7.62335 13.22917,7.74319 0.29528,0.11986 0.69555,0.16602 0.88935,0.10232 0.1938,-0.0636 0.46169,-0.11575 0.59531,-0.11575 0.36878,0 0.31803,-38.35984 -0.0527,-39.8322 -0.35693,-1.41749 -1.11957,-2.12996 -5.28133,-4.9351 -7.00017,-4.71831 -9.63334,-6.6191 -9.57564,-6.91224 0.0337,-0.17115 0.2399,-1.085 0.45785,-2.03088 0.72236,-3.13502 -0.33175,-6.06664 -2.77037,-7.70444 -1.44813,-0.97257 -2.62378,-1.28916 -4.75992,-1.28416 -5.75103,0.0145 -9.22528,5.95562 -6.60425,11.29389 1.48228,3.01899 4.14954,4.47811 7.70444,4.21473 l 2.02624,-0.14987 1.67793,1.24644 c 0.92286,0.68566 3.58294,2.60545 5.91127,4.26589 2.32834,1.66043 4.56075,3.31995 4.96093,3.68763 l 0.72761,0.66818 v 13.86943 c 0,11.76238 -0.0562,13.84809 -0.36949,13.72785 -0.33556,-0.12876 -20.40641,-11.87289 -28.06599,-16.42226 -2.53478,-1.50553 -3.28809,-2.09245 -3.76979,-2.93935 l -0.60151,-1.05833 0.0651,-20.0179 0.0656,-20.0179 0.81442,-1.00614 c 0.60668,-0.74947 3.57697,-2.63246 11.64166,-7.380948 5.95494,-3.506271 14.10147,-8.313151 18.10329,-10.681519 6.95553,-4.116437 7.3285,-4.301231 8.46667,-4.197159 0.94771,0.08666 2.43219,0.839165 7.27604,3.688147 3.34698,1.968574 11.32416,6.647167 17.72708,10.396781 6.40291,3.749618 12.02028,7.175098 12.48348,7.612458 0.4632,0.43737 0.97167,1.1074 1.12965,1.4888 0.20015,0.48318 0.2655,6.75253 0.216,20.6747 -0.0701,19.69734 -0.0789,19.99177 -0.61598,20.72897 -0.50278,0.6901 -11.29496,7.48148 -12.35325,7.77369 -0.43662,0.12056 -0.46302,-0.65052 -0.46302,-13.52941 0,-9.30224 0.088,-13.65653 0.27595,-13.65653 0.61599,0 2.87128,-2.46924 3.41943,-3.74344 2.68986,-6.25276 -3.76285,-12.72797 -9.98699,-10.02161 -5.80554,2.52434 -5.9994,10.96163 -0.31936,13.89889 l 0.79013,0.40876 v 18.49861 c 0,12.74764 0.0873,18.55225 0.28061,18.67173 0.23673,0.1463 19.14025,-10.91996 22.33352,-13.07414 0.57802,-0.38993 1.41145,-1.2221 1.85208,-1.84898 l 0.8015,-1.13946 0.0703,-23.42855 0.0703,-23.42854 -0.65009,-1.11001 c -0.35764,-0.61027 -1.10358,-1.40818 -1.65778,-1.77354 -0.55419,-0.36535 -10.02216,-5.923913 -21.03954,-12.352215 -17.14638,-10.004387 -20.4756,-11.937748 -22.17591,-11.943457 z m 22.6286,42.860952 c 2.40348,0 3.68232,2.96791 2.05052,4.75888 -1.30045,1.42731 -3.55182,1.17618 -4.41472,-0.49248 -1.04279,-2.01654 0.204,-4.2664 2.3642,-4.2664 z m -44.5823,0.26458 c 1.20706,0 2.38125,1.23941 2.38125,2.51354 0,0.71573 -0.201,1.16737 -0.77359,1.73995 -0.52784,0.52784 -1.03815,0.77359 -1.60766,0.77359 -1.20707,0 -2.38125,-1.23942 -2.38125,-2.51354 0,-1.27413 1.17418,-2.51354 2.38125,-2.51354 z" /></g><g
         id="g19"
         transform="matrix(0.33733821,0,0,0.33733821,347.03666,34.751877)"
         style="fill:#ffffff"><path
           id="path1"
           style="fill:#ffffff"
           d="m -757.35636,192.18052 c -1.75075,-0.0192 -3.55961,0.34917 -5.30872,1.16168 -2.88581,1.34054 -5.11893,4.17042 -5.87302,7.44141 -0.40767,1.76833 -0.34104,6.77253 0.11369,8.51834 1.14493,4.39568 4.13742,7.37035 8.33695,8.28787 4.10892,0.89772 7.95551,-0.20638 10.68359,-3.06648 1.61856,-1.6969 2.3763,-3.04018 2.94349,-5.21777 0.45387,-1.74254 0.52183,-5.96272 0.12919,-8.0331 -1.0413,-5.49077 -5.77289,-9.03449 -11.02517,-9.09195 z m -0.19378,4.64881 c 0.23317,3.5e-4 0.47247,0.0114 0.71727,0.0336 1.16411,0.10555 1.87251,0.34455 2.64583,0.89297 4.12815,2.92763 4.01152,12.3107 -0.18345,14.76912 -1.05453,0.61799 -3.31813,1.07897 -3.99717,0.81391 -0.14552,-0.0568 -0.59506,-0.17642 -0.99891,-0.26562 -0.95698,-0.21133 -2.74325,-1.8368 -3.37137,-3.06803 -0.71561,-1.40271 -1.1491,-4.27052 -0.94568,-6.25595 0.45962,-4.48613 2.6359,-6.92525 6.13348,-6.91999 z" /><path
           id="path10"
           style="fill:#ffffff"
           d="m -651.60829,192.76911 v 12.3269 12.32689 h 2.51354 2.51354 v -4.50876 -4.50929 l 2.00505,0.0775 2.00505,0.0775 2.29443,4.36562 2.29443,4.36563 2.97657,0.0744 c 1.63711,0.0412 2.97656,0.002 2.97656,-0.0879 0,-0.0897 -1.20076,-2.31592 -2.66806,-4.94698 -2.43112,-4.35929 -2.62479,-4.80725 -2.18281,-5.04672 1.29813,-0.70332 2.95142,-2.73148 3.3662,-4.12998 1.20243,-4.05419 -0.26087,-7.74875 -3.74757,-9.46092 -1.51425,-0.74362 -1.51585,-0.74386 -7.93078,-0.83406 z m 5.02708,4.28139 2.18282,0.006 c 2.93924,0.008 4.14447,0.32144 5.02708,1.30638 0.61561,0.68699 0.7276,1.04699 0.7276,2.3368 0,1.77787 -0.4506,2.58408 -1.74614,3.12539 -0.55602,0.23232 -1.86576,0.36897 -3.53725,0.36897 h -2.65411 v -3.57187 z" /><path
           id="path12"
           style="fill:#ffffff"
           d="m -615.68232,192.80063 -3.04322,0.0744 -3.04271,0.0744 -4.33669,12.02046 c -2.38519,6.61129 -4.33663,12.11788 -4.33668,12.23698 4e-5,0.11899 1.24209,0.21652 2.76055,0.21652 h 2.76107 l 0.86714,-2.64583 0.86713,-2.64584 h 4.42453 4.42454 l 0.86713,2.64584 0.86713,2.64583 h 2.72231 c 1.50516,0 2.7218,-0.11069 2.7218,-0.24701 0,-0.18423 -6.08233,-17.59262 -8.25944,-23.6399 z m -3.1321,5.76606 c 0.15277,-0.16993 3.19602,8.79189 3.19102,9.39788 -8.5e-4,0.10914 -1.44316,0.19843 -3.20498,0.19843 -2.77309,0 -3.18247,-0.0546 -3.04736,-0.40669 0.0858,-0.22368 0.76855,-2.33704 1.51722,-4.69635 0.74867,-2.35931 1.44349,-4.38137 1.5441,-4.49327 z" /><path
           style="fill:#ffffff"
           d="m -676.21468,205.12002 v -12.30313 h 2.63339 c 2.56192,0 2.6327,0.0162 2.60842,0.59532 -0.0137,0.32742 -0.008,2.53008 0.0125,4.89479 l 0.0374,4.29948 h 4.77886 4.77887 l -0.0825,-4.89512 -0.0825,-4.89511 2.57969,3.2e-4 2.57968,3.2e-4 v 12.31271 12.31271 l -2.53603,-0.0757 -2.53603,-0.0757 0.0326,-5.09323 0.0326,-5.09323 -4.83877,-2.8e-4 -4.83877,-2.8e-4 0.077,5.15966 0.077,5.15965 h -2.65667 -2.65668 z"
           id="path9" /><path
           style="fill:#ffffff"
           d="m -721.19384,205.12002 v -12.30313 h 8.33437 8.33438 v 2.25822 2.25821 l -5.75469,-0.0291 -5.75469,-0.0291 v 2.73185 2.73185 l 5.22553,0.0717 5.22552,0.0717 1.5e-4,2.04492 1.6e-4,2.04493 h -5.22568 -5.22568 l -0.0748,2.97656 -0.0748,2.97657 h 5.96179 5.96179 v 2.24896 2.24895 h -8.46666 -8.46667 z"
           id="path8" /><path
           style="fill:#ffffff"
           d="m -737.59172,207.34776 0.0181,-10.07539 -3.6502,-0.0449 -3.65019,-0.0449 -0.0768,-2.18281 -0.0768,-2.18282 10.13101,-2.4e-4 10.13101,-2.4e-4 -0.0487,2.18305 -0.0487,2.18306 -3.58928,0.0736 -3.58928,0.0736 v 10.0467 10.0467 h -2.78401 -2.78402 z"
           id="path7" /><path
           style="fill:#ffffff"
           d="m -792.89592,205.1296 v -12.31271 l 2.57968,0.008 2.57969,0.008 0.82142,1.38156 c 3.04273,5.11765 8.67853,14.3904 8.87673,14.60515 0.14263,0.15456 0.20928,-3.02001 0.16524,-7.87149 l -0.0738,-8.13051 2.57969,1.4e-4 2.57968,1.4e-4 v 12.30313 12.30312 h -2.50979 -2.50978 l -0.63631,-0.99218 c -0.34998,-0.54571 -2.50593,-4.02829 -4.79102,-7.73907 -2.28509,-3.71078 -4.26597,-6.86332 -4.40195,-7.00565 -0.1535,-0.16066 -0.23843,2.74855 -0.22401,7.67292 l 0.0232,7.93169 -2.52935,0.0757 -2.52935,0.0757 z"
           id="path6" /><path
           style="fill:#ffffff"
           d="m -817.76676,205.1196 v -12.30313 l 2.57969,0.011 2.57969,0.011 4.63021,7.69474 c 2.54661,4.23211 4.78332,7.88835 4.97045,8.12497 0.27825,0.35183 0.30813,-1.05245 0.16396,-7.70571 l -0.1763,-8.13594 h 2.68032 2.68032 v 12.30313 12.30312 h -2.48807 -2.48806 l -1.29921,-2.05052 c -0.71457,-1.12778 -2.95846,-4.72173 -4.98642,-7.98655 l -3.6872,-5.93603 -0.07,7.98655 -0.07,7.98655 h -2.50966 -2.50967 z"
           id="path5" /><path
           style="fill:#ffffff"
           d="m -827.82092,205.1196 v -12.30313 l 2.57969,-7e-5 2.57968,-7e-5 -0.0713,12.3032 -0.0713,12.30319 h -2.50839 -2.50838 z"
           id="path4" /><path
           style="fill:#ffffff"
           d="m -693.80947,217.33037 c -3.47902,-1.14934 -5.85261,-3.50325 -7.06213,-7.0036 -0.52473,-1.51855 -0.61078,-2.28946 -0.61078,-5.47175 0,-4.09967 0.33133,-5.57121 1.76915,-7.85739 2.85376,-4.53755 9.09425,-6.2368 14.17371,-3.85942 2.46489,1.15366 4.80346,4.27196 5.23894,6.98572 l 0.16479,1.02692 -2.62415,-0.0827 -2.62415,-0.0827 -0.53269,-1.26084 c -0.3211,-0.76001 -0.93371,-1.56671 -1.54227,-2.03088 -0.85462,-0.65185 -1.29763,-0.78351 -2.88625,-0.85777 -1.66821,-0.078 -1.99542,-0.01 -2.9458,0.6155 -2.15931,1.42029 -3.03191,3.63001 -3.03191,7.67786 0,3.13103 0.51753,4.86189 1.90319,6.36515 2.77248,3.00779 7.69191,2.06991 8.8038,-1.67844 0.16852,-0.56812 0.30288,-0.59531 2.94192,-0.59531 h 2.76534 l -0.16653,0.7276 c -0.65012,2.84055 -2.74034,5.4696 -5.35192,6.73155 -1.59641,0.77141 -2.03684,0.86124 -4.5458,0.92719 -1.78206,0.0468 -3.15757,-0.0523 -3.83646,-0.27661 z"
           id="path3" /></g></g></g></svg>
