<?xml version="1.0" encoding="UTF-8" standalone="no"?>
<!-- Created with Inkscape (http://www.inkscape.org/) -->

<svg
   width="91.879692mm"
   height="23.369722mm"
   viewBox="0 0 91.879693 23.369722"
   version="1.1"
   id="svg1"
   xml:space="preserve"
   inkscape:version="1.4.2 (f4327f4, 2025-05-13)"
   sodipodi:docname="logo.svg"
   xmlns:inkscape="http://www.inkscape.org/namespaces/inkscape"
   xmlns:sodipodi="http://sodipodi.sourceforge.net/DTD/sodipodi-0.dtd"
   xmlns:xlink="http://www.w3.org/1999/xlink"
   xmlns="http://www.w3.org/2000/svg"
   xmlns:svg="http://www.w3.org/2000/svg"><sodipodi:namedview
     id="namedview1"
     pagecolor="#ffffff"
     bordercolor="#000000"
     borderopacity="0.25"
     inkscape:showpageshadow="2"
     inkscape:pageopacity="0.0"
     inkscape:pagecheckerboard="0"
     inkscape:deskcolor="#d1d1d1"
     inkscape:document-units="mm"
     inkscape:zoom="1"
     inkscape:cx="153.5"
     inkscape:cy="77.5"
     inkscape:window-width="1920"
     inkscape:window-height="991"
     inkscape:window-x="-9"
     inkscape:window-y="-9"
     inkscape:window-maximized="1"
     inkscape:current-layer="layer1" /><defs
     id="defs1"><linearGradient
       id="linearGradient24"
       inkscape:collect="always"><stop
         style="stop-color:#154e8e;stop-opacity:1;"
         offset="0"
         id="stop24" /><stop
         style="stop-color:#0199a5;stop-opacity:1;"
         offset="1"
         id="stop25" /></linearGradient><linearGradient
       inkscape:collect="always"
       xlink:href="#linearGradient24"
       id="linearGradient25"
       x1="-740.52649"
       y1="114.85017"
       x2="-805.23102"
       y2="2.7786009"
       gradientUnits="userSpaceOnUse"
       gradientTransform="matrix(0.23150116,0,0,0.23150116,-463.16725,109.15627)" /></defs><g
     inkscape:label="Layer 1"
     inkscape:groupmode="layer"
     id="layer1"
     transform="translate(617.01936,-138.19728)"><g
       id="g25"
       transform="translate(33.602083,23.01875)"><path
         id="path24"
         style="fill:url(#linearGradient25);stroke:none;stroke-width:0.231501"
         d="m -640.21594,115.17853 c -0.0908,-3e-4 -0.16157,0.0231 -0.24691,0.0529 -0.10826,0.0377 -0.9443,0.50628 -1.85776,1.04115 -0.91346,0.53487 -3.039,1.77794 -4.72341,2.76242 -1.68442,0.98447 -3.13777,1.86085 -3.22982,1.9476 -0.37039,0.34907 -0.35912,0.14973 -0.34011,5.95585 l 0.0173,5.29824 0.13734,0.25673 c 0.17942,0.33567 0.24935,0.38434 2.19021,1.52124 0.90958,0.5328 2.976,1.75268 4.59206,2.71085 1.61605,0.95817 2.99421,1.76482 3.06257,1.79256 l 1.2e-4,-1.2e-4 c 0.0684,0.0277 0.16089,0.0384 0.20576,0.0237 0.0449,-0.0147 0.10688,-0.0268 0.13782,-0.0268 0.0854,0 0.0737,-8.88023 -0.0121,-9.22108 -0.0826,-0.32815 -0.25917,-0.49321 -1.22263,-1.1426 -1.62055,-1.09229 -2.23013,-1.53233 -2.21677,-1.60019 0.008,-0.0396 0.0554,-0.25118 0.10587,-0.47015 0.16723,-0.72576 -0.0767,-1.40444 -0.64122,-1.78359 -0.33524,-0.22515 -0.60753,-0.29854 -1.10205,-0.29728 -1.33137,0.003 -2.13566,1.37885 -1.52889,2.61466 0.34315,0.6989 0.96063,1.03669 1.78359,0.97572 l 0.46907,-0.0348 0.38845,0.28855 c 0.21364,0.15874 0.82945,0.60317 1.36846,0.98756 0.53902,0.3844 1.05582,0.76858 1.14846,0.8537 l 0.16845,0.15468 v 3.21079 c 0,2.723 -0.013,3.20584 -0.0855,3.17801 -0.0777,-0.0298 -4.72399,-2.74858 -6.49719,-3.80177 -0.5868,-0.34853 -0.7612,-0.48441 -0.87271,-0.68046 l -0.13937,-0.24501 0.0152,-4.63417 0.0151,-4.63416 0.18866,-0.23293 c 0.14045,-0.1735 0.82807,-0.60941 2.69506,-1.70869 1.37858,-0.81171 3.26438,-1.92451 4.19081,-2.47279 1.61021,-0.95296 1.69656,-0.99574 1.96005,-0.97164 0.21939,0.0201 0.56305,0.19426 1.68441,0.85381 0.77483,0.45572 2.62156,1.53882 4.10384,2.40686 1.48228,0.86804 2.78283,1.66104 2.89006,1.76229 0.10723,0.10126 0.22494,0.25637 0.26151,0.34466 0.0463,0.11186 0.0615,1.56323 0.05,4.78622 -0.0162,4.55996 -0.0183,4.62812 -0.1426,4.79878 -0.1164,0.15976 -2.61492,1.73197 -2.85991,1.79962 -0.10108,0.0279 -0.10719,-0.1506 -0.10719,-3.13208 0,-2.15347 0.0204,-3.1615 0.0639,-3.1615 0.1426,0 0.66482,-0.57163 0.79172,-0.86661 0.62271,-1.44752 -0.87122,-2.94654 -2.31212,-2.32001 -1.34399,0.58439 -1.38887,2.53763 -0.0739,3.21761 l 0.18292,0.0946 v 4.28255 c 0,2.9511 0.0202,4.29487 0.065,4.32253 0.0548,0.0339 4.4311,-2.52798 5.17035,-3.02668 0.13382,-0.0903 0.32675,-0.28291 0.42876,-0.42804 l 0.18543,-0.26378 0.0164,-5.42374 0.0163,-5.42374 -0.1505,-0.25696 c -0.0828,-0.14128 -0.2556,-0.326 -0.3839,-0.41058 -0.12829,-0.0846 -2.32002,-1.37139 -4.87056,-2.85955 -3.9694,-2.31603 -4.74012,-2.76361 -5.13375,-2.76493 z m 0.0708,4.36069 c -0.65523,0.008 -1.31121,0.33802 -1.62819,0.98732 -0.21316,0.43665 -0.25374,0.80433 -0.13422,1.21546 0.12729,0.43787 0.40549,0.81376 0.76994,1.04031 l 0.29382,0.18268 0.0333,1.66515 c 0.0469,2.34611 0.047,2.34626 1.32288,3.13112 0.45943,0.28261 0.72489,0.48753 0.7934,0.61251 0.0934,0.1704 0.10458,0.61827 0.12106,4.82761 0.0142,3.62685 0.0348,4.63979 0.0938,4.63979 0.0415,0 0.33654,-0.15878 0.65558,-0.35279 l 0.57997,-0.35279 v -4.41572 -4.41584 l -0.2151,-0.42242 c -0.20224,-0.39727 -0.26906,-0.46409 -1.11783,-1.11676 l -0.90274,-0.69422 v -1.52196 -1.52207 l 0.19906,-0.13638 c 0.3568,-0.24446 0.60511,-0.50928 0.76995,-0.82127 0.23502,-0.44483 0.2307,-1.08655 -0.0108,-1.58009 -0.31409,-0.64199 -0.96864,-0.95723 -1.62387,-0.94964 z m 0.002,1.21307 c 0.0564,-1.3e-4 0.18729,0.0711 0.29095,0.15827 0.24354,0.20493 0.25952,0.51102 0.0382,0.73238 -0.22348,0.22348 -0.52739,0.2056 -0.73693,-0.0434 -0.10832,-0.12874 -0.15151,-0.23672 -0.12873,-0.32157 0.0189,-0.0703 0.0346,-0.16269 0.035,-0.20529 9e-4,-0.0928 0.35677,-0.32005 0.5015,-0.32037 z m 5.16509,4.3486 c 0.55641,0 0.85246,0.68708 0.4747,1.10169 -0.30106,0.33042 -0.82213,0.27229 -1.02189,-0.11401 -0.24141,-0.46683 0.0471,-0.98768 0.54719,-0.98768 z m -10.32085,0.0613 c 0.27944,0 0.55126,0.28693 0.55126,0.58189 0,0.16569 -0.0464,0.27025 -0.17897,0.4028 -0.12219,0.1222 -0.24044,0.17909 -0.37229,0.17909 -0.27944,0 -0.55126,-0.28693 -0.55126,-0.58189 0,-0.29496 0.27182,-0.58189 0.55126,-0.58189 z" /><g
         id="g24"
         transform="matrix(0.29807158,0,0,0.29807158,-402.03639,101.97496)"
         style="fill:#000000"><path
           style="fill:#000000"
           d="m -549.01398,95.725133 c 0,-0.11897 1.95154,-5.62561 4.33676,-12.23698 l 4.33676,-12.02067 3.04285,-0.0743 3.04285,-0.0743 0.26488,0.73575 c 2.17711,6.04728 8.25923,23.45605 8.25923,23.64028 0,0.13632 -1.2167,0.24651 -2.72186,0.24651 h -2.72186 l -0.86724,-2.64583 -0.86725,-2.64583 h -4.42442 -4.42442 l -0.86725,2.64583 -0.86724,2.64583 h -2.7609 c -1.51849,0 -2.76089,-0.0973 -2.76089,-0.2163 z m 14.81821,-9.24255 c 0.005,-0.60599 -3.0379,-9.56766 -3.19067,-9.39773 -0.10061,0.1119 -0.79547,2.1338 -1.54414,4.49311 -0.74867,2.35931 -1.43145,4.47267 -1.51728,4.69636 -0.13511,0.35208 0.27415,0.4067 3.04724,0.4067 1.76182,0 3.204,-0.0893 3.20485,-0.19844 z"
           id="path22" /><path
           style="fill:#000000"
           d="m -570.18065,83.614273 v -12.32716 l 6.41615,0.0902 c 6.41493,0.0902 6.41643,0.0903 7.93068,0.83392 3.4867,1.71217 4.95021,5.40666 3.74778,9.46085 -0.41478,1.3985 -2.06796,3.42705 -3.36609,4.13037 -0.44198,0.23947 -0.2483,0.68725 2.18282,5.04654 1.4673,2.63106 2.66783,4.85711 2.66783,4.94677 0,0.0897 -1.33945,0.12936 -2.97656,0.0882 l -2.97657,-0.0748 -2.29438,-4.36562 -2.29438,-4.36563 -2.0051,-0.0773 -2.00509,-0.0773 v 4.50905 4.50904 h -2.51355 -2.51354 z m 11.21871,-1.27093 c 1.29554,-0.54131 1.74588,-1.34748 1.74588,-3.12535 0,-1.28981 -0.112,-1.64943 -0.72761,-2.33643 -0.88261,-0.98494 -2.08784,-1.29823 -5.02708,-1.30673 l -2.18281,-0.006 v 3.57187 3.57188 h 2.65433 c 1.67148,0 2.98127,-0.13661 3.53729,-0.36893 z"
           id="path21" /><path
           style="fill:#000000"
           d="m -594.7869,83.638273 v -12.30354 h 2.63339 c 2.56192,0 2.6327,0.0162 2.60842,0.59531 -0.0137,0.32742 -0.008,2.53008 0.0125,4.89479 l 0.0374,4.29948 h 4.77886 4.77887 l -0.0825,-4.89512 -0.0825,-4.89511 2.57969,3.2e-4 2.57968,3.3e-4 v 12.3127 12.31271 l -2.53603,-0.0757 -2.53603,-0.0757 0.0326,-5.09323 0.0326,-5.09323 -4.83877,-2.8e-4 -4.83877,-2.8e-4 0.077,5.15966 0.077,5.15965 h -2.65667 -2.65668 z"
           id="path20" /><path
           style="fill:#000000"
           d="m -639.76606,83.638273 v -12.30354 h 8.33437 8.33438 v 2.25821 2.25821 l -5.75469,-0.0291 -5.75469,-0.0291 v 2.73185 2.73185 l 5.22553,0.0717 5.22552,0.0717 1.5e-4,2.04493 1.6e-4,2.04492 h -5.22568 -5.22568 l -0.0748,2.97657 -0.0748,2.97656 h 5.96179 5.96179 v 2.24896 2.24895 h -8.46666 -8.46667 z"
           id="path19" /><path
           style="fill:#000000"
           d="m -656.16394,85.866013 0.0181,-10.07539 -3.65019,-0.0449 -3.6502,-0.0449 -0.0768,-2.18281 -0.0768,-2.18281 10.13101,-2.5e-4 10.13102,-2.4e-4 -0.0487,2.18305 -0.0487,2.18306 -3.58928,0.0736 -3.58929,0.0736 v 10.0467 10.0467 h -2.78401 -2.78401 z"
           id="path18" /><path
           style="fill:#000000"
           d="m -711.46814,83.647853 v -12.3127 l 2.57969,0.008 2.57969,0.007 0.82141,1.38156 c 3.04273,5.11765 8.67853,14.3904 8.87673,14.60515 0.14264,0.15456 0.20928,-3.02001 0.16524,-7.87149 l -0.0738,-8.13051 2.57969,1.4e-4 2.57968,1.5e-4 v 12.30312 12.30312 h -2.50978 -2.50979 l -0.63631,-0.99218 c -0.34998,-0.54571 -2.50593,-4.02828 -4.79102,-7.73907 -2.28509,-3.71078 -4.26597,-6.86332 -4.40195,-7.00565 -0.1535,-0.16066 -0.23843,2.74855 -0.22401,7.67292 l 0.0232,7.93169 -2.52936,0.0757 -2.52935,0.0757 z"
           id="path16" /><path
           style="fill:#000000"
           d="m -736.33897,83.637853 v -12.30312 l 2.57969,0.011 2.57968,0.011 4.63021,7.69475 c 2.54662,4.2321 4.78332,7.88834 4.97046,8.12496 0.27824,0.35183 0.30812,-1.05245 0.16395,-7.70571 l -0.1763,-8.13593 h 2.68032 2.68032 v 12.30312 12.30312 h -2.48806 -2.48807 l -1.29921,-2.05052 c -0.71457,-1.12778 -2.95845,-4.72173 -4.98641,-7.98655 l -3.68721,-5.93603 -0.07,7.98655 -0.07,7.98655 h -2.50966 -2.50966 z"
           id="path15" /><path
           style="fill:#000000"
           d="m -746.39314,83.637853 v -12.30312 l 2.57969,-8e-5 2.57969,-7e-5 -0.0713,12.3032 -0.0713,12.30319 h -2.50838 -2.50839 z"
           id="path13" /><path
           style="fill:#000000"
           d="m -612.38169,95.848623 c -3.47902,-1.14934 -5.85261,-3.50325 -7.06213,-7.0036 -0.52473,-1.51855 -0.61078,-2.28946 -0.61078,-5.47175 0,-4.09967 0.33133,-5.57121 1.76915,-7.85739 2.85376,-4.53755 9.09425,-6.2368 14.17371,-3.85942 2.46489,1.15366 4.80346,4.27196 5.23894,6.98572 l 0.16479,1.02692 -2.62415,-0.0827 -2.62415,-0.0827 -0.53269,-1.26084 c -0.3211,-0.76001 -0.93371,-1.56671 -1.54227,-2.03088 -0.85462,-0.65185 -1.29763,-0.78351 -2.88625,-0.85777 -1.66821,-0.078 -1.99542,-0.01 -2.9458,0.61551 -2.15931,1.42028 -3.03191,3.63 -3.03191,7.67785 0,3.13103 0.51753,4.86189 1.90319,6.36515 2.77248,3.00779 7.69191,2.06991 8.8038,-1.67844 0.16852,-0.56812 0.30288,-0.59531 2.94192,-0.59531 h 2.76534 l -0.16653,0.72761 c -0.65012,2.84054 -2.74035,5.46959 -5.35192,6.73154 -1.59641,0.77141 -2.03684,0.86124 -4.5458,0.92719 -1.78206,0.0468 -3.15757,-0.0523 -3.83646,-0.27661 z"
           id="path11" /><path
           style="fill:#000000"
           d="m -678.65981,96.107863 c -4.19953,-0.91752 -7.19165,-3.89214 -8.33658,-8.28782 -0.45472,-1.74581 -0.52173,-6.7499 -0.11407,-8.51824 0.75409,-3.27099 2.98761,-6.10074 5.87341,-7.44128 6.99641,-3.25006 14.94515,0.60918 16.33355,7.9302 0.39264,2.07038 0.32487,6.2904 -0.12901,8.03294 -0.56718,2.17759 -1.32494,3.52079 -2.94351,5.21769 -2.72808,2.8601 -6.57487,3.96423 -10.68379,3.06651 z m 5.71718,-5.06447 c 4.19497,-2.45842 4.31139,-11.84148 0.18324,-14.76911 -0.77331,-0.54842 -1.48184,-0.78759 -2.64594,-0.89314 -3.91677,-0.35516 -6.36041,2.10123 -6.85067,6.88644 -0.20341,1.98543 0.23013,4.8533 0.94574,6.25601 0.62813,1.23123 2.4144,2.85686 3.37139,3.06819 0.40385,0.0892 0.85333,0.20862 0.99885,0.26543 0.67904,0.26506 2.94286,-0.19583 3.99739,-0.81382 z"
           id="path2" /></g></g></g></svg>
